M48
; DRILL file KiCad 10.0.4 date 2026-08-27T19:36:19
; FORMAT={-:-/ absolute / metric / decimal}
; #@! TF.CreationDate,2026-08-27T19:36:19-05:00
; #@! TF.GenerationSoftware,Kicad,Pcbnew,10.0.4
; #@! TF.FileFunction,Plated,1,2,PTH
FMAT,2
METRIC
; #@! TA.AperFunction,Plated,PTH,ComponentDrill
T1C0.400
; #@! TA.AperFunction,Plated,PTH,ComponentDrill
T2C0.600
; #@! TA.AperFunction,Plated,PTH,ComponentDrill
T3C1.000
%
G90
G05
T1
X168.825Y-72.372
X169.275Y-71.592
X169.725Y-72.372
X170.175Y-71.592
X170.625Y-72.372
X171.075Y-71.592
X171.525Y-72.372
X171.975Y-71.592
X172.425Y-72.372
X172.875Y-71.592
X173.325Y-72.372
X173.775Y-71.592
X174.225Y-72.372
X174.675Y-71.592
T3
X160.287Y-68.908
X160.287Y-71.408
X160.287Y-73.408
X160.287Y-75.908
T2
G00X168.875Y-68.982
M15
G01X169.875Y-68.982
M16
G05
G00X168.875Y-74.982
M15
G01X169.875Y-74.982
M16
G05
G00X173.675Y-68.982
M15
G01X174.675Y-68.982
M16
G05
G00X173.675Y-74.982
M15
G01X174.675Y-74.982
M16
G05
T3
G00X158.887Y-66.558
M15
G01X157.688Y-66.558
M16
G05
G00X158.887Y-78.258
M15
G01X157.688Y-78.258
M16
G05
M30
