%TF.GenerationSoftware,KiCad,Pcbnew,10.0.4*%
%TF.CreationDate,2026-08-27T19:37:20-05:00*%
%TF.ProjectId,USB Blocker,55534220-426c-46f6-936b-65722e6b6963,rev?*%
%TF.SameCoordinates,Original*%
%TF.FileFunction,Copper,L1,Top*%
%TF.FilePolarity,Positive*%
%FSLAX46Y46*%
G04 Gerber Fmt 4.6, Leading zero omitted, Abs format (unit mm)*
G04 Created by KiCad (PCBNEW 10.0.4) date 2026-08-27 19:37:20*
%MOMM*%
%LPD*%
G01*
G04 APERTURE LIST*
G04 Aperture macros list*
%AMRoundRect*
0 Rectangle with rounded corners*
0 $1 Rounding radius*
0 $2 $3 $4 $5 $6 $7 $8 $9 X,Y pos of 4 corners*
0 Add a 4 corners polygon primitive as box body*
4,1,4,$2,$3,$4,$5,$6,$7,$8,$9,$2,$3,0*
0 Add four circle primitives for the rounded corners*
1,1,$1+$1,$2,$3*
1,1,$1+$1,$4,$5*
1,1,$1+$1,$6,$7*
1,1,$1+$1,$8,$9*
0 Add four rect primitives between the rounded corners*
20,1,$1+$1,$2,$3,$4,$5,0*
20,1,$1+$1,$4,$5,$6,$7,0*
20,1,$1+$1,$6,$7,$8,$9,0*
20,1,$1+$1,$8,$9,$2,$3,0*%
G04 Aperture macros list end*
%TA.AperFunction,ComponentPad*%
%ADD10R,0.600000X0.600000*%
%TD*%
%TA.AperFunction,ComponentPad*%
%ADD11C,0.600000*%
%TD*%
%TA.AperFunction,ComponentPad*%
%ADD12O,1.900000X0.900000*%
%TD*%
%TA.AperFunction,SMDPad,CuDef*%
%ADD13RoundRect,0.250000X-0.262500X-0.450000X0.262500X-0.450000X0.262500X0.450000X-0.262500X0.450000X0*%
%TD*%
%TA.AperFunction,ComponentPad*%
%ADD14R,1.508000X1.508000*%
%TD*%
%TA.AperFunction,ComponentPad*%
%ADD15C,1.508000*%
%TD*%
%TA.AperFunction,ComponentPad*%
%ADD16O,3.016000X1.508000*%
%TD*%
%TA.AperFunction,Conductor*%
%ADD17C,0.200000*%
%TD*%
G04 APERTURE END LIST*
D10*
%TO.P,J3,A1,GND_A1*%
%TO.N,GND*%
X174225000Y-72371750D03*
D11*
%TO.P,J3,A4,VBUS_A4*%
%TO.N,Net-(J3-VBUS)*%
X173325000Y-72371750D03*
%TO.P,J3,A5,CC1_A5*%
%TO.N,Net-(J3-CC1)*%
X172425000Y-72371750D03*
%TO.P,J3,A6,DP1_A6*%
%TO.N,Net-(J3-DN1)*%
X171525000Y-72371750D03*
%TO.P,J3,A7,DN1_A7*%
X170625000Y-72371750D03*
%TO.P,J3,A9,VBUS__1_A9*%
%TO.N,Net-(J3-VBUS)*%
X169725000Y-72371750D03*
%TO.P,J3,A12,GND__1_A12*%
%TO.N,GND*%
X168825000Y-72371750D03*
%TO.P,J3,B1,GND__2_B1*%
X169275000Y-71591750D03*
%TO.P,J3,B4,VBUS__2_B4*%
%TO.N,Net-(J3-VBUS)*%
X170175000Y-71591750D03*
%TO.P,J3,B5,CC2_B5*%
%TO.N,Net-(J3-CC2)*%
X171075000Y-71591750D03*
%TO.P,J3,B6,DP2_B6*%
%TO.N,Net-(J3-DN1)*%
X171975000Y-71591750D03*
%TO.P,J3,B7,DN2_B7*%
X172875000Y-71591750D03*
%TO.P,J3,B9,VBUS__3_B9*%
%TO.N,Net-(J3-VBUS)*%
X173775000Y-71591750D03*
%TO.P,J3,B12,GND__3_B12*%
%TO.N,GND*%
X174675000Y-71591750D03*
D12*
%TO.P,J3,SH1,SHIELD_SH1*%
X169375000Y-74981750D03*
%TO.P,J3,SH2,SHIELD__1_SH2*%
X174175000Y-74981750D03*
%TO.P,J3,SH3,SHIELD__2_SH3*%
X169375000Y-68981750D03*
%TO.P,J3,SH4,SHIELD__3_SH4*%
X174175000Y-68981750D03*
%TD*%
D13*
%TO.P,R1,1*%
%TO.N,Net-(J3-VBUS)*%
X164087500Y-75000000D03*
%TO.P,R1,2*%
%TO.N,Net-(J3-CC1)*%
X165912500Y-75000000D03*
%TD*%
%TO.P,R2,1*%
%TO.N,Net-(J3-VBUS)*%
X164087500Y-69000000D03*
%TO.P,R2,2*%
%TO.N,Net-(J3-CC2)*%
X165912500Y-69000000D03*
%TD*%
D14*
%TO.P,J4,1,VCC_1*%
%TO.N,Net-(J3-VBUS)*%
X160287500Y-75907750D03*
D15*
%TO.P,J4,2,D-_2*%
%TO.N,unconnected-(J4-D--Pad2)*%
X160287500Y-73407750D03*
%TO.P,J4,3,D+_3*%
%TO.N,unconnected-(J4-D+-Pad3)*%
X160287500Y-71407750D03*
%TO.P,J4,4,GND_4*%
%TO.N,GND*%
X160287500Y-68907750D03*
D16*
%TO.P,J4,SH1,SHIELD_SH1*%
X158287500Y-66557750D03*
%TO.P,J4,SH2,SHIELD__1_SH2*%
X158287500Y-78257750D03*
%TD*%
%TO.N,Net-(J3-CC1)*%
D17*
X172425000Y-74075000D02*
X170500000Y-76000000D01*
X170500000Y-76000000D02*
X168000000Y-76000000D01*
X167000000Y-75000000D02*
X165912500Y-75000000D01*
X168000000Y-76000000D02*
X167000000Y-75000000D01*
X172425000Y-72371750D02*
X172425000Y-74075000D01*
%TO.N,Net-(J3-DN1)*%
X172875000Y-71591750D02*
X171975000Y-71591750D01*
X171525000Y-72041750D02*
X171975000Y-71591750D01*
X171525000Y-72371750D02*
X170625000Y-72371750D01*
X171525000Y-72371750D02*
X171525000Y-72041750D01*
%TO.N,Net-(J3-VBUS)*%
X166607750Y-72107750D02*
X167000000Y-72500000D01*
X160287500Y-75907750D02*
X162500000Y-75907750D01*
X168096750Y-74000000D02*
X169725000Y-72371750D01*
X169575000Y-70991750D02*
X168508250Y-70991750D01*
X173775000Y-71591750D02*
X174375000Y-70991750D01*
X163179750Y-75907750D02*
X164087500Y-75000000D01*
X163092250Y-76500000D02*
X162500000Y-75907750D01*
X162500000Y-75907750D02*
X163179750Y-75907750D01*
X170175000Y-71591750D02*
X169575000Y-70991750D01*
X167000000Y-72500000D02*
X167000000Y-73500000D01*
X168508250Y-70991750D02*
X167000000Y-72500000D01*
X164087500Y-69000000D02*
X164087500Y-72107750D01*
X173500000Y-74000000D02*
X171000000Y-76500000D01*
X173325000Y-72371750D02*
X173500000Y-72546750D01*
X164087500Y-72107750D02*
X160287500Y-75907750D01*
X171000000Y-76500000D02*
X163092250Y-76500000D01*
X174923529Y-70991750D02*
X175500000Y-71568221D01*
X175000000Y-73500000D02*
X173500000Y-73500000D01*
X175500000Y-73000000D02*
X175000000Y-73500000D01*
X173500000Y-73500000D02*
X173500000Y-74000000D01*
X175500000Y-71568221D02*
X175500000Y-73000000D01*
X174375000Y-70991750D02*
X174923529Y-70991750D01*
X167000000Y-73500000D02*
X167500000Y-74000000D01*
X164087500Y-72107750D02*
X166607750Y-72107750D01*
X167500000Y-74000000D02*
X168096750Y-74000000D01*
X173500000Y-72546750D02*
X173500000Y-73500000D01*
%TO.N,Net-(J3-CC2)*%
X169483250Y-70000000D02*
X166912500Y-70000000D01*
X166912500Y-70000000D02*
X165912500Y-69000000D01*
X171075000Y-71591750D02*
X169483250Y-70000000D01*
%TD*%
M02*
