%TF.GenerationSoftware,KiCad,Pcbnew,10.0.4*%
%TF.CreationDate,2026-08-27T19:37:20-05:00*%
%TF.ProjectId,USB Blocker,55534220-426c-46f6-936b-65722e6b6963,rev?*%
%TF.SameCoordinates,Original*%
%TF.FileFunction,Copper,L2,Bot*%
%TF.FilePolarity,Positive*%
%FSLAX46Y46*%
G04 Gerber Fmt 4.6, Leading zero omitted, Abs format (unit mm)*
G04 Created by KiCad (PCBNEW 10.0.4) date 2026-08-27 19:37:20*
%MOMM*%
%LPD*%
G01*
G04 APERTURE LIST*
%TA.AperFunction,ComponentPad*%
%ADD10R,0.600000X0.600000*%
%TD*%
%TA.AperFunction,ComponentPad*%
%ADD11C,0.600000*%
%TD*%
%TA.AperFunction,ComponentPad*%
%ADD12O,1.900000X0.900000*%
%TD*%
%TA.AperFunction,ComponentPad*%
%ADD13R,1.508000X1.508000*%
%TD*%
%TA.AperFunction,ComponentPad*%
%ADD14C,1.508000*%
%TD*%
%TA.AperFunction,ComponentPad*%
%ADD15O,3.016000X1.508000*%
%TD*%
G04 APERTURE END LIST*
D10*
%TO.P,J3,A1,GND_A1*%
%TO.N,GND*%
X174225000Y-72371750D03*
D11*
%TO.P,J3,A4,VBUS_A4*%
%TO.N,Net-(J3-VBUS)*%
X173325000Y-72371750D03*
%TO.P,J3,A5,CC1_A5*%
%TO.N,Net-(J3-CC1)*%
X172425000Y-72371750D03*
%TO.P,J3,A6,DP1_A6*%
%TO.N,Net-(J3-DN1)*%
X171525000Y-72371750D03*
%TO.P,J3,A7,DN1_A7*%
X170625000Y-72371750D03*
%TO.P,J3,A9,VBUS__1_A9*%
%TO.N,Net-(J3-VBUS)*%
X169725000Y-72371750D03*
%TO.P,J3,A12,GND__1_A12*%
%TO.N,GND*%
X168825000Y-72371750D03*
%TO.P,J3,B1,GND__2_B1*%
X169275000Y-71591750D03*
%TO.P,J3,B4,VBUS__2_B4*%
%TO.N,Net-(J3-VBUS)*%
X170175000Y-71591750D03*
%TO.P,J3,B5,CC2_B5*%
%TO.N,Net-(J3-CC2)*%
X171075000Y-71591750D03*
%TO.P,J3,B6,DP2_B6*%
%TO.N,Net-(J3-DN1)*%
X171975000Y-71591750D03*
%TO.P,J3,B7,DN2_B7*%
X172875000Y-71591750D03*
%TO.P,J3,B9,VBUS__3_B9*%
%TO.N,Net-(J3-VBUS)*%
X173775000Y-71591750D03*
%TO.P,J3,B12,GND__3_B12*%
%TO.N,GND*%
X174675000Y-71591750D03*
D12*
%TO.P,J3,SH1,SHIELD_SH1*%
X169375000Y-74981750D03*
%TO.P,J3,SH2,SHIELD__1_SH2*%
X174175000Y-74981750D03*
%TO.P,J3,SH3,SHIELD__2_SH3*%
X169375000Y-68981750D03*
%TO.P,J3,SH4,SHIELD__3_SH4*%
X174175000Y-68981750D03*
%TD*%
D13*
%TO.P,J4,1,VCC_1*%
%TO.N,Net-(J3-VBUS)*%
X160287500Y-75907750D03*
D14*
%TO.P,J4,2,D-_2*%
%TO.N,unconnected-(J4-D--Pad2)*%
X160287500Y-73407750D03*
%TO.P,J4,3,D+_3*%
%TO.N,unconnected-(J4-D+-Pad3)*%
X160287500Y-71407750D03*
%TO.P,J4,4,GND_4*%
%TO.N,GND*%
X160287500Y-68907750D03*
D15*
%TO.P,J4,SH1,SHIELD_SH1*%
X158287500Y-66557750D03*
%TO.P,J4,SH2,SHIELD__1_SH2*%
X158287500Y-78257750D03*
%TD*%
%TA.AperFunction,Conductor*%
%TO.N,GND*%
G36*
X177742539Y-65720185D02*
G01*
X177788294Y-65772989D01*
X177799500Y-65824500D01*
X177799500Y-79175500D01*
X177779815Y-79242539D01*
X177727011Y-79288294D01*
X177675500Y-79299500D01*
X153324500Y-79299500D01*
X153257461Y-79279815D01*
X153211706Y-79227011D01*
X153200500Y-79175500D01*
X153200500Y-74756670D01*
X157536999Y-74756670D01*
X157565840Y-74901657D01*
X157565843Y-74901667D01*
X157622412Y-75038238D01*
X157622419Y-75038251D01*
X157704548Y-75161165D01*
X157704551Y-75161169D01*
X157809080Y-75265698D01*
X157809084Y-75265701D01*
X157931998Y-75347830D01*
X157932011Y-75347837D01*
X158068582Y-75404406D01*
X158068587Y-75404408D01*
X158068591Y-75404408D01*
X158068592Y-75404409D01*
X158213579Y-75433250D01*
X158213582Y-75433250D01*
X158361420Y-75433250D01*
X158458962Y-75413846D01*
X158506413Y-75404408D01*
X158642995Y-75347834D01*
X158765916Y-75265701D01*
X158821320Y-75210296D01*
X158882641Y-75176813D01*
X158952333Y-75181797D01*
X159008266Y-75223668D01*
X159032684Y-75289132D01*
X159033000Y-75297979D01*
X159033000Y-76709620D01*
X159033001Y-76709626D01*
X159039408Y-76769233D01*
X159089702Y-76904078D01*
X159089706Y-76904085D01*
X159175952Y-77019294D01*
X159175955Y-77019297D01*
X159291164Y-77105543D01*
X159291171Y-77105547D01*
X159426017Y-77155841D01*
X159426016Y-77155841D01*
X159432944Y-77156585D01*
X159485627Y-77162250D01*
X161089372Y-77162249D01*
X161148983Y-77155841D01*
X161283831Y-77105546D01*
X161399046Y-77019296D01*
X161485296Y-76904081D01*
X161535591Y-76769233D01*
X161542000Y-76709623D01*
X161541999Y-75105878D01*
X161535591Y-75046267D01*
X161532601Y-75038251D01*
X161485297Y-74911421D01*
X161485293Y-74911414D01*
X161399047Y-74796205D01*
X161399044Y-74796202D01*
X161283835Y-74709956D01*
X161283828Y-74709952D01*
X161148982Y-74659658D01*
X161148983Y-74659658D01*
X161089383Y-74653251D01*
X161089381Y-74653250D01*
X161089373Y-74653250D01*
X161089365Y-74653250D01*
X161089132Y-74653250D01*
X161089079Y-74653234D01*
X161086048Y-74653072D01*
X161086086Y-74652355D01*
X161022093Y-74633565D01*
X160976338Y-74580761D01*
X160966394Y-74511603D01*
X160995419Y-74448047D01*
X161016247Y-74428932D01*
X161104746Y-74364634D01*
X161104748Y-74364631D01*
X161104752Y-74364629D01*
X161244379Y-74225002D01*
X161244381Y-74224998D01*
X161244384Y-74224996D01*
X161335342Y-74099801D01*
X161360444Y-74065251D01*
X161450091Y-73889311D01*
X161511110Y-73701513D01*
X161542000Y-73506486D01*
X161542000Y-73309013D01*
X161511110Y-73113986D01*
X161471973Y-72993536D01*
X161450091Y-72926189D01*
X161360444Y-72750249D01*
X161352986Y-72739984D01*
X161244384Y-72590503D01*
X161149312Y-72495431D01*
X161145629Y-72488686D01*
X161139378Y-72484217D01*
X161129118Y-72458449D01*
X161115827Y-72434108D01*
X161116375Y-72426443D01*
X161113532Y-72419303D01*
X161118832Y-72392077D01*
X161120811Y-72364416D01*
X161125752Y-72356539D01*
X161126885Y-72350721D01*
X161144532Y-72326602D01*
X161147412Y-72322011D01*
X161148349Y-72321031D01*
X161176477Y-72292903D01*
X168924500Y-72292903D01*
X168924500Y-72450596D01*
X168955261Y-72605239D01*
X168955264Y-72605251D01*
X169015602Y-72750922D01*
X169015609Y-72750935D01*
X169103210Y-72882038D01*
X169103213Y-72882042D01*
X169214707Y-72993536D01*
X169214711Y-72993539D01*
X169345814Y-73081140D01*
X169345827Y-73081147D01*
X169491498Y-73141485D01*
X169491503Y-73141487D01*
X169646153Y-73172249D01*
X169646156Y-73172250D01*
X169646158Y-73172250D01*
X169803844Y-73172250D01*
X169803845Y-73172249D01*
X169958497Y-73141487D01*
X170104179Y-73081144D01*
X170106110Y-73079853D01*
X170107276Y-73079487D01*
X170109546Y-73078275D01*
X170109776Y-73078705D01*
X170172786Y-73058976D01*
X170240166Y-73077460D01*
X170243850Y-73079827D01*
X170245821Y-73081144D01*
X170245824Y-73081145D01*
X170245827Y-73081147D01*
X170391498Y-73141485D01*
X170391503Y-73141487D01*
X170546153Y-73172249D01*
X170546156Y-73172250D01*
X170546158Y-73172250D01*
X170703844Y-73172250D01*
X170703845Y-73172249D01*
X170858497Y-73141487D01*
X171004179Y-73081144D01*
X171006110Y-73079853D01*
X171007276Y-73079487D01*
X171009546Y-73078275D01*
X171009776Y-73078705D01*
X171072786Y-73058976D01*
X171140166Y-73077460D01*
X171143850Y-73079827D01*
X171145821Y-73081144D01*
X171145824Y-73081145D01*
X171145827Y-73081147D01*
X171291498Y-73141485D01*
X171291503Y-73141487D01*
X171446153Y-73172249D01*
X171446156Y-73172250D01*
X171446158Y-73172250D01*
X171603844Y-73172250D01*
X171603845Y-73172249D01*
X171758497Y-73141487D01*
X171904179Y-73081144D01*
X171906110Y-73079853D01*
X171907276Y-73079487D01*
X171909546Y-73078275D01*
X171909776Y-73078705D01*
X171972786Y-73058976D01*
X172040166Y-73077460D01*
X172043850Y-73079827D01*
X172045821Y-73081144D01*
X172045824Y-73081145D01*
X172045827Y-73081147D01*
X172191498Y-73141485D01*
X172191503Y-73141487D01*
X172346153Y-73172249D01*
X172346156Y-73172250D01*
X172346158Y-73172250D01*
X172503844Y-73172250D01*
X172503845Y-73172249D01*
X172658497Y-73141487D01*
X172804179Y-73081144D01*
X172806110Y-73079853D01*
X172807276Y-73079487D01*
X172809546Y-73078275D01*
X172809776Y-73078705D01*
X172872786Y-73058976D01*
X172940166Y-73077460D01*
X172943850Y-73079827D01*
X172945821Y-73081144D01*
X172945824Y-73081145D01*
X172945827Y-73081147D01*
X173091498Y-73141485D01*
X173091503Y-73141487D01*
X173246153Y-73172249D01*
X173246156Y-73172250D01*
X173246158Y-73172250D01*
X173403844Y-73172250D01*
X173403845Y-73172249D01*
X173558497Y-73141487D01*
X173704179Y-73081144D01*
X173835289Y-72993539D01*
X173946789Y-72882039D01*
X174034394Y-72750929D01*
X174094737Y-72605247D01*
X174125500Y-72450592D01*
X174125500Y-72386586D01*
X174145185Y-72319547D01*
X174180609Y-72283484D01*
X174285289Y-72213539D01*
X174396786Y-72102042D01*
X174396789Y-72102039D01*
X174484394Y-71970929D01*
X174544737Y-71825247D01*
X174575500Y-71670592D01*
X174575500Y-71512908D01*
X174575500Y-71512905D01*
X174575499Y-71512903D01*
X174544738Y-71358260D01*
X174544737Y-71358253D01*
X174524344Y-71309019D01*
X174484397Y-71212577D01*
X174484390Y-71212564D01*
X174396789Y-71081461D01*
X174396786Y-71081457D01*
X174285292Y-70969963D01*
X174285288Y-70969960D01*
X174154185Y-70882359D01*
X174154172Y-70882352D01*
X174008501Y-70822014D01*
X174008489Y-70822011D01*
X173853845Y-70791250D01*
X173853842Y-70791250D01*
X173696158Y-70791250D01*
X173696155Y-70791250D01*
X173541510Y-70822011D01*
X173541498Y-70822014D01*
X173395822Y-70882354D01*
X173395820Y-70882355D01*
X173393885Y-70883649D01*
X173392717Y-70884014D01*
X173390451Y-70885226D01*
X173390221Y-70884795D01*
X173327206Y-70904523D01*
X173259827Y-70886035D01*
X173256115Y-70883649D01*
X173254179Y-70882355D01*
X173254177Y-70882354D01*
X173108501Y-70822014D01*
X173108489Y-70822011D01*
X172953845Y-70791250D01*
X172953842Y-70791250D01*
X172796158Y-70791250D01*
X172796155Y-70791250D01*
X172641510Y-70822011D01*
X172641498Y-70822014D01*
X172495822Y-70882354D01*
X172495820Y-70882355D01*
X172493885Y-70883649D01*
X172492717Y-70884014D01*
X172490451Y-70885226D01*
X172490221Y-70884795D01*
X172427206Y-70904523D01*
X172359827Y-70886035D01*
X172356115Y-70883649D01*
X172354179Y-70882355D01*
X172354177Y-70882354D01*
X172208501Y-70822014D01*
X172208489Y-70822011D01*
X172053845Y-70791250D01*
X172053842Y-70791250D01*
X171896158Y-70791250D01*
X171896155Y-70791250D01*
X171741510Y-70822011D01*
X171741498Y-70822014D01*
X171595822Y-70882354D01*
X171595820Y-70882355D01*
X171593885Y-70883649D01*
X171592717Y-70884014D01*
X171590451Y-70885226D01*
X171590221Y-70884795D01*
X171527206Y-70904523D01*
X171459827Y-70886035D01*
X171456115Y-70883649D01*
X171454179Y-70882355D01*
X171454177Y-70882354D01*
X171308501Y-70822014D01*
X171308489Y-70822011D01*
X171153845Y-70791250D01*
X171153842Y-70791250D01*
X170996158Y-70791250D01*
X170996155Y-70791250D01*
X170841510Y-70822011D01*
X170841498Y-70822014D01*
X170695822Y-70882354D01*
X170695820Y-70882355D01*
X170693885Y-70883649D01*
X170692717Y-70884014D01*
X170690451Y-70885226D01*
X170690221Y-70884795D01*
X170627206Y-70904523D01*
X170559827Y-70886035D01*
X170556115Y-70883649D01*
X170554179Y-70882355D01*
X170554177Y-70882354D01*
X170408501Y-70822014D01*
X170408489Y-70822011D01*
X170253845Y-70791250D01*
X170253842Y-70791250D01*
X170096158Y-70791250D01*
X170096155Y-70791250D01*
X169941510Y-70822011D01*
X169941498Y-70822014D01*
X169795827Y-70882352D01*
X169795814Y-70882359D01*
X169664711Y-70969960D01*
X169664707Y-70969963D01*
X169553213Y-71081457D01*
X169553210Y-71081461D01*
X169465609Y-71212564D01*
X169465602Y-71212577D01*
X169405264Y-71358248D01*
X169405261Y-71358260D01*
X169374500Y-71512903D01*
X169374500Y-71576914D01*
X169354815Y-71643953D01*
X169319391Y-71680016D01*
X169214710Y-71749960D01*
X169103213Y-71861457D01*
X169103210Y-71861461D01*
X169015609Y-71992564D01*
X169015602Y-71992577D01*
X168955264Y-72138248D01*
X168955261Y-72138260D01*
X168924500Y-72292903D01*
X161176477Y-72292903D01*
X161244379Y-72225002D01*
X161360444Y-72065251D01*
X161450091Y-71889311D01*
X161511110Y-71701513D01*
X161516007Y-71670594D01*
X161542000Y-71506486D01*
X161542000Y-71309013D01*
X161511110Y-71113986D01*
X161451224Y-70929677D01*
X161450091Y-70926189D01*
X161360444Y-70750249D01*
X161335344Y-70715701D01*
X161244384Y-70590503D01*
X161104746Y-70450865D01*
X160945004Y-70334808D01*
X160945003Y-70334807D01*
X160945001Y-70334806D01*
X160769061Y-70245159D01*
X160769058Y-70245158D01*
X160581263Y-70184139D01*
X160386236Y-70153250D01*
X160386231Y-70153250D01*
X160188769Y-70153250D01*
X160188764Y-70153250D01*
X159993736Y-70184139D01*
X159805941Y-70245158D01*
X159629995Y-70334808D01*
X159470253Y-70450865D01*
X159330615Y-70590503D01*
X159214558Y-70750245D01*
X159214556Y-70750249D01*
X159146399Y-70884014D01*
X159124908Y-70926191D01*
X159063889Y-71113986D01*
X159033000Y-71309013D01*
X159033000Y-71506486D01*
X159063889Y-71701513D01*
X159115859Y-71861457D01*
X159124909Y-71889311D01*
X159214556Y-72065251D01*
X159214558Y-72065254D01*
X159330615Y-72224996D01*
X159425688Y-72320069D01*
X159459173Y-72381392D01*
X159454189Y-72451084D01*
X159425688Y-72495431D01*
X159330619Y-72590499D01*
X159330615Y-72590503D01*
X159214558Y-72750245D01*
X159124908Y-72926191D01*
X159063889Y-73113986D01*
X159033000Y-73309013D01*
X159033000Y-73506486D01*
X159063889Y-73701513D01*
X159124908Y-73889308D01*
X159124909Y-73889311D01*
X159214556Y-74065251D01*
X159214558Y-74065254D01*
X159330615Y-74224996D01*
X159470251Y-74364632D01*
X159558753Y-74428931D01*
X159601420Y-74484261D01*
X159607399Y-74553874D01*
X159574794Y-74615669D01*
X159513956Y-74650027D01*
X159488926Y-74652902D01*
X159488936Y-74653074D01*
X159486126Y-74653224D01*
X159485904Y-74653250D01*
X159485647Y-74653250D01*
X159485623Y-74653251D01*
X159426016Y-74659658D01*
X159291171Y-74709952D01*
X159291164Y-74709956D01*
X159236311Y-74751020D01*
X159170847Y-74775438D01*
X159102574Y-74760587D01*
X159053168Y-74711182D01*
X159038000Y-74651754D01*
X159038000Y-74608829D01*
X159009159Y-74463842D01*
X159009158Y-74463841D01*
X159009158Y-74463837D01*
X158994700Y-74428932D01*
X158952587Y-74327261D01*
X158952580Y-74327248D01*
X158870451Y-74204334D01*
X158870448Y-74204330D01*
X158765919Y-74099801D01*
X158765915Y-74099798D01*
X158643001Y-74017669D01*
X158642988Y-74017662D01*
X158506417Y-73961093D01*
X158506407Y-73961090D01*
X158361420Y-73932250D01*
X158361418Y-73932250D01*
X158213582Y-73932250D01*
X158213580Y-73932250D01*
X158068592Y-73961090D01*
X158068582Y-73961093D01*
X157932011Y-74017662D01*
X157931998Y-74017669D01*
X157809084Y-74099798D01*
X157809080Y-74099801D01*
X157704551Y-74204330D01*
X157704548Y-74204334D01*
X157622419Y-74327248D01*
X157622412Y-74327261D01*
X157565843Y-74463832D01*
X157565840Y-74463842D01*
X157537000Y-74608829D01*
X157537000Y-74608832D01*
X157537000Y-74756668D01*
X157537000Y-74756670D01*
X157536999Y-74756670D01*
X153200500Y-74756670D01*
X153200500Y-70206670D01*
X157536999Y-70206670D01*
X157565840Y-70351657D01*
X157565843Y-70351667D01*
X157622412Y-70488238D01*
X157622419Y-70488251D01*
X157704548Y-70611165D01*
X157704551Y-70611169D01*
X157809080Y-70715698D01*
X157809084Y-70715701D01*
X157931998Y-70797830D01*
X157932011Y-70797837D01*
X158068582Y-70854406D01*
X158068587Y-70854408D01*
X158068591Y-70854408D01*
X158068592Y-70854409D01*
X158213579Y-70883250D01*
X158213582Y-70883250D01*
X158361420Y-70883250D01*
X158458962Y-70863846D01*
X158506413Y-70854408D01*
X158642995Y-70797834D01*
X158765916Y-70715701D01*
X158870451Y-70611166D01*
X158952584Y-70488245D01*
X159009158Y-70351663D01*
X159018596Y-70304212D01*
X159038000Y-70206670D01*
X159038000Y-70058829D01*
X159009159Y-69913842D01*
X159009158Y-69913841D01*
X159009158Y-69913837D01*
X159009156Y-69913832D01*
X158952587Y-69777261D01*
X158952580Y-69777248D01*
X158870451Y-69654334D01*
X158870448Y-69654330D01*
X158765919Y-69549801D01*
X158765915Y-69549798D01*
X158643001Y-69467669D01*
X158642988Y-69467662D01*
X158506417Y-69411093D01*
X158506407Y-69411090D01*
X158361420Y-69382250D01*
X158361418Y-69382250D01*
X158213582Y-69382250D01*
X158213580Y-69382250D01*
X158068592Y-69411090D01*
X158068582Y-69411093D01*
X157932011Y-69467662D01*
X157931998Y-69467669D01*
X157809084Y-69549798D01*
X157809080Y-69549801D01*
X157704551Y-69654330D01*
X157704548Y-69654334D01*
X157622419Y-69777248D01*
X157622412Y-69777261D01*
X157565843Y-69913832D01*
X157565840Y-69913842D01*
X157537000Y-70058829D01*
X157537000Y-70058832D01*
X157537000Y-70206668D01*
X157537000Y-70206670D01*
X157536999Y-70206670D01*
X153200500Y-70206670D01*
X153200500Y-65824500D01*
X153220185Y-65757461D01*
X153272989Y-65711706D01*
X153324500Y-65700500D01*
X177675500Y-65700500D01*
X177742539Y-65720185D01*
G37*
%TD.AperFunction*%
%TD*%
M02*
