%TF.GenerationSoftware,KiCad,Pcbnew,10.0.4*%
%TF.CreationDate,2026-08-27T19:37:20-05:00*%
%TF.ProjectId,USB Blocker,55534220-426c-46f6-936b-65722e6b6963,rev?*%
%TF.SameCoordinates,Original*%
%TF.FileFunction,Legend,Top*%
%TF.FilePolarity,Positive*%
%FSLAX46Y46*%
G04 Gerber Fmt 4.6, Leading zero omitted, Abs format (unit mm)*
G04 Created by KiCad (PCBNEW 10.0.4) date 2026-08-27 19:37:20*
%MOMM*%
%LPD*%
G01*
G04 APERTURE LIST*
%ADD10C,0.150000*%
%ADD11C,0.127000*%
%ADD12C,0.200000*%
%ADD13C,0.120000*%
G04 APERTURE END LIST*
D10*
X161954819Y-71833333D02*
X162669104Y-71833333D01*
X162669104Y-71833333D02*
X162811961Y-71880952D01*
X162811961Y-71880952D02*
X162907200Y-71976190D01*
X162907200Y-71976190D02*
X162954819Y-72119047D01*
X162954819Y-72119047D02*
X162954819Y-72214285D01*
X161954819Y-71452380D02*
X161954819Y-70833333D01*
X161954819Y-70833333D02*
X162335771Y-71166666D01*
X162335771Y-71166666D02*
X162335771Y-71023809D01*
X162335771Y-71023809D02*
X162383390Y-70928571D01*
X162383390Y-70928571D02*
X162431009Y-70880952D01*
X162431009Y-70880952D02*
X162526247Y-70833333D01*
X162526247Y-70833333D02*
X162764342Y-70833333D01*
X162764342Y-70833333D02*
X162859580Y-70880952D01*
X162859580Y-70880952D02*
X162907200Y-70928571D01*
X162907200Y-70928571D02*
X162954819Y-71023809D01*
X162954819Y-71023809D02*
X162954819Y-71309523D01*
X162954819Y-71309523D02*
X162907200Y-71404761D01*
X162907200Y-71404761D02*
X162859580Y-71452380D01*
X165833333Y-73804819D02*
X165500000Y-73328628D01*
X165261905Y-73804819D02*
X165261905Y-72804819D01*
X165261905Y-72804819D02*
X165642857Y-72804819D01*
X165642857Y-72804819D02*
X165738095Y-72852438D01*
X165738095Y-72852438D02*
X165785714Y-72900057D01*
X165785714Y-72900057D02*
X165833333Y-72995295D01*
X165833333Y-72995295D02*
X165833333Y-73138152D01*
X165833333Y-73138152D02*
X165785714Y-73233390D01*
X165785714Y-73233390D02*
X165738095Y-73281009D01*
X165738095Y-73281009D02*
X165642857Y-73328628D01*
X165642857Y-73328628D02*
X165261905Y-73328628D01*
X166785714Y-73804819D02*
X166214286Y-73804819D01*
X166500000Y-73804819D02*
X166500000Y-72804819D01*
X166500000Y-72804819D02*
X166404762Y-72947676D01*
X166404762Y-72947676D02*
X166309524Y-73042914D01*
X166309524Y-73042914D02*
X166214286Y-73090533D01*
X164833333Y-67804819D02*
X164500000Y-67328628D01*
X164261905Y-67804819D02*
X164261905Y-66804819D01*
X164261905Y-66804819D02*
X164642857Y-66804819D01*
X164642857Y-66804819D02*
X164738095Y-66852438D01*
X164738095Y-66852438D02*
X164785714Y-66900057D01*
X164785714Y-66900057D02*
X164833333Y-66995295D01*
X164833333Y-66995295D02*
X164833333Y-67138152D01*
X164833333Y-67138152D02*
X164785714Y-67233390D01*
X164785714Y-67233390D02*
X164738095Y-67281009D01*
X164738095Y-67281009D02*
X164642857Y-67328628D01*
X164642857Y-67328628D02*
X164261905Y-67328628D01*
X165214286Y-66900057D02*
X165261905Y-66852438D01*
X165261905Y-66852438D02*
X165357143Y-66804819D01*
X165357143Y-66804819D02*
X165595238Y-66804819D01*
X165595238Y-66804819D02*
X165690476Y-66852438D01*
X165690476Y-66852438D02*
X165738095Y-66900057D01*
X165738095Y-66900057D02*
X165785714Y-66995295D01*
X165785714Y-66995295D02*
X165785714Y-67090533D01*
X165785714Y-67090533D02*
X165738095Y-67233390D01*
X165738095Y-67233390D02*
X165166667Y-67804819D01*
X165166667Y-67804819D02*
X165785714Y-67804819D01*
X161954819Y-69333333D02*
X162669104Y-69333333D01*
X162669104Y-69333333D02*
X162811961Y-69380952D01*
X162811961Y-69380952D02*
X162907200Y-69476190D01*
X162907200Y-69476190D02*
X162954819Y-69619047D01*
X162954819Y-69619047D02*
X162954819Y-69714285D01*
X162288152Y-68428571D02*
X162954819Y-68428571D01*
X161907200Y-68666666D02*
X162621485Y-68904761D01*
X162621485Y-68904761D02*
X162621485Y-68285714D01*
%TO.C,J3*%
D11*
X167725000Y-70101750D02*
X167725000Y-73861750D01*
X167725000Y-73861750D02*
X176455000Y-73861750D01*
X176455000Y-70101750D02*
X167725000Y-70101750D01*
D12*
X174325000Y-76181750D02*
G75*
G02*
X174125000Y-76181750I-100000J0D01*
G01*
X174125000Y-76181750D02*
G75*
G02*
X174325000Y-76181750I100000J0D01*
G01*
%TO.C,R1*%
D13*
X164772936Y-74265000D02*
X165227064Y-74265000D01*
X164772936Y-75735000D02*
X165227064Y-75735000D01*
%TO.C,R2*%
X164772936Y-68265000D02*
X165227064Y-68265000D01*
X164772936Y-69735000D02*
X165227064Y-69735000D01*
%TO.C,J4*%
D11*
X155287500Y-66407750D02*
X156537500Y-66407750D01*
X155287500Y-78407750D02*
X156537500Y-78407750D01*
D12*
X161637500Y-75907750D02*
G75*
G02*
X161437500Y-75907750I-100000J0D01*
G01*
X161437500Y-75907750D02*
G75*
G02*
X161637500Y-75907750I100000J0D01*
G01*
%TD*%
M02*
